<svg xmlns="http://www.w3.org/2000/svg" viewBox="0 0 1000 1000"><defs><style>.a{fill:#212121;}</style></defs><title>GoodmanFinal</title><path class="a" d="M952.088,47.912V952.088H47.912V47.912H952.088M1000,0H0V1000H1000V0Z"/><path class="a" d="M293.314,178.035H319.75V291.967H293.314V280.036q-16.26,15.207-34.976,15.207-23.627,0-39.067-17.078-15.325-17.428-15.324-43.514,0-25.617,15.324-42.7t38.367-17.078q19.885,0,35.676,16.376ZM230.85,234.651q0,16.378,8.772,26.67a28.733,28.733,0,0,0,22.695,10.411q14.621,0,23.627-10.06,9.009-10.41,9.008-26.436T285.944,208.8q-9.006-10.177-23.395-10.177a29.1,29.1,0,0,0-22.691,10.294Q230.849,219.329,230.85,234.651Z"/><path class="a" d="M346.019,278.866a16.261,16.261,0,0,1,32.52.117,15.78,15.78,0,0,1-4.8,11.58,16.527,16.527,0,0,1-23.045,0A15.873,15.873,0,0,1,346.019,278.866Z"/><path class="a" d="M319.516,546.087q0,8.071-.526,14.212a99.151,99.151,0,0,1-1.462,10.82,48.182,48.182,0,0,1-11,22.108q-15.44,17.779-42.46,17.78-22.81,0-37.549-12.282-15.2-12.633-17.544-34.975h26.434q1.522,8.422,5.031,12.984,8.186,10.643,23.863,10.645,28.891,0,28.893-35.443V536.027q-15.676,16.027-36.146,16.025-23.279,0-38.133-16.844-14.974-17.077-14.973-42.7,0-24.915,13.921-42.344,14.972-18.481,39.535-18.482,21.524,0,35.8,16.025V434.845h26.318ZM294.25,492.045q0-16.608-8.89-26.553-9.009-10.177-23.043-10.177-14.974,0-23.63,11.112-7.835,9.944-7.836,25.734,0,15.558,7.836,25.5,8.54,10.879,23.63,10.879t23.863-11Q294.248,507.6,294.25,492.045Z"/><path class="a" d="M338.707,490.992A56.615,56.615,0,0,1,356.371,449q17.661-17.31,43.046-17.312,25.5,0,43.278,17.429,17.546,17.431,17.548,42.812,0,25.617-17.664,42.929-17.782,17.2-43.63,17.2-25.62,0-42.93-17.546Q338.706,517.2,338.707,490.992Zm26.9.468q0,17.08,9.124,27.021,9.357,10.062,24.682,10.06,15.44,0,24.68-9.943t9.24-26.553q0-16.608-9.24-26.553-9.36-10.059-24.68-10.06-15.092,0-24.448,10.06T365.611,491.46Z"/><path class="a" d="M473.262,490.992A56.615,56.615,0,0,1,490.926,449q17.661-17.31,43.046-17.312,25.5,0,43.278,17.429Q594.8,466.547,594.8,491.928q0,25.617-17.664,42.929-17.782,17.2-43.63,17.2-25.62,0-42.93-17.546Q473.261,517.2,473.262,490.992Zm26.9.468q0,17.08,9.124,27.021,9.357,10.062,24.682,10.06,15.44,0,24.68-9.943t9.24-26.553q0-16.608-9.24-26.553-9.36-10.059-24.68-10.06-15.092,0-24.448,10.06T500.166,491.46Z"/><path class="a" d="M697.809,351.209h26.436V548.777H697.809V536.846q-15.558,15.207-35.208,15.207-23.4,0-38.835-17.078-15.325-17.428-15.324-43.514,0-25.5,15.324-42.578,15.2-17.2,38.249-17.2,20,0,35.794,16.376ZM635.346,491.46q0,16.378,8.772,26.67a28.733,28.733,0,0,0,22.695,10.411q14.621,0,23.627-10.06,9.009-10.41,9.008-26.436t-9.008-26.436q-9.006-10.177-23.395-10.177a29.1,29.1,0,0,0-22.691,10.294Q635.345,476.139,635.346,491.46Z"/><path class="a" d="M750.515,535.676a16.261,16.261,0,0,1,32.52.117,15.78,15.78,0,0,1-4.8,11.58,16.527,16.527,0,0,1-23.045,0A15.873,15.873,0,0,1,750.515,535.676Z"/><path class="a" d="M209.327,714.653h26.32V725.18q7.6-7.953,12.983-10.762,5.73-2.922,14.387-2.924,19.3,0,30.531,16.844,12.4-16.844,33.57-16.844,38.486,0,38.485,46.672v70.418H339.167V765.3q0-16.375-3.977-23.161-4.1-6.9-13.451-6.9-10.881,0-15.85,8.188t-4.973,26.319v58.838H274.482V765.653q0-30.412-17.548-30.413-11.112,0-16.2,8.305t-5.087,26.2v58.838h-26.32Z"/><path class="a" d="M474.115,714.653h26.436V828.585H474.115V816.653q-16.26,15.207-34.976,15.207-23.627,0-39.067-17.078-15.325-17.428-15.324-43.514,0-25.617,15.324-42.7t38.367-17.078q19.885,0,35.676,16.376Zm-62.464,56.615q0,16.378,8.772,26.67a28.733,28.733,0,0,0,22.695,10.411q14.621,0,23.627-10.06,9.009-10.41,9.008-26.436t-9.008-26.436q-9.006-10.177-23.395-10.177a29.1,29.1,0,0,0-22.691,10.294Q411.651,755.946,411.652,771.268Z"/><path class="a" d="M525.913,714.653h26.436V725.18q13.8-13.686,31.115-13.686,19.885,0,31,12.516,9.59,10.646,9.59,34.741v69.833H597.619V764.951q0-16.844-4.679-23.278-4.565-6.55-16.612-6.551-13.1,0-18.6,8.656-5.382,8.54-5.381,29.828v54.977H525.913Z"/><path class="a" d="M650.084,815.484a16.261,16.261,0,0,1,32.52.117,15.78,15.78,0,0,1-4.8,11.58,16.527,16.527,0,0,1-23.045,0A15.873,15.873,0,0,1,650.084,815.484Z"/></svg>